<svg width="300" height="300" xmlns="http://www.w3.org/2000/svg">

  <!--<path stroke="#424242" fill="#00000000" d="
            M 450 450
            A 200 200 0 0 0 550 450
            A 200 200 0 0 0 550 550
            A 200 200 0 0 0 450 550
            A 200 200 0 0 0 450 450
            z
            m 25, 25 v 50 h 50 v -50 h -50
            z" />-->

    <line x1="125" y1="0" x2="125" y2="300" stroke="#424242" /> 
    <line x1="0" y1="125" x2="300" y2="125" stroke="#424242" /> 
    <line x1="175" y1="0" x2="175" y2="300" stroke="#424242" /> 
    <line x1="0" y1="175" x2="300" y2="175" stroke="#424242" /> 

	<circle cx="150" cy="150" r="15" fill="#00000000" stroke="#424242" />

    <circle cx="150" cy="-93" r="200" fill="#00000000" stroke="#424242" />
    <circle cx="-93" cy="150" r="200" fill="#00000000" stroke="#424242" />
    <circle cx="150" cy="393" r="200" fill="#00000000" stroke="#424242" />
    <circle cx="393" cy="150" r="200" fill="#00000000" stroke="#424242" />
</svg>