<?xml version="1.0" encoding="utf-8"?>
<!-- Generator: Adobe Illustrator 16.0.0, SVG Export Plug-In . SVG Version: 6.00 Build 0)  -->
<!DOCTYPE svg PUBLIC "-//W3C//DTD SVG 1.1//EN" "http://www.w3.org/Graphics/SVG/1.1/DTD/svg11.dtd">
<svg version="1.1" id="Layer_1" xmlns="http://www.w3.org/2000/svg" xmlns:xlink="http://www.w3.org/1999/xlink" x="0px" y="0px"
	 width="580px" height="200px" viewBox="-287.5 -85.083 580 200" enable-background="new -287.5 -85.083 580 200"
	 xml:space="preserve">
<path d="M206.822,66.523c0,4.141-3.359,7.5-7.5,7.5c-4.143,0-7.5-3.359-7.5-7.5c0-4.143,3.357-7.5,7.5-7.5
	C203.463,59.023,206.822,62.381,206.822,66.523z M199.322,63.01c-1.941,0-3.516,1.572-3.516,3.514c0,1.939,1.574,3.514,3.516,3.514
	c1.939,0,3.512-1.574,3.512-3.514C202.834,64.582,201.262,63.01,199.322,63.01z"/>
<path d="M185.547,27.16c7.951-31.5-0.359-50.88-0.359-50.88l9-1.742c0,0,4.676,7.734,3.273,53.712
	C197.338,31.844,184.668,30.644,185.547,27.16z"/>
<path d="M190.848-22.439c12.785,1.41,46.727,14.943,41.008,5.059c-6.48-11.172-25.951-21.547-40.301-26.094
	c-10.021-3.166-25.6,4.336-35.156,19.203C151.361-16.441,181.576-23.46,190.848-22.439z"/>
<text transform="matrix(1 0 0 1 -227.25 43.8481)" font-family="'DINAlternate-Bold'" font-size="90">BioDivine</text>
<polyline points="214.811,14.753 214.914,55.223 224.164,55.223 224.061,6.122 194.48,6.122 196.748,17.317 194.561,27.379 
	203.77,27.442 203.77,61.879 194.561,61.879 194.48,36.504 185.156,36.504 185.188,24.805 188.811,14.754 "/>
<polygon points="187.621,26.411 187.621,17.317 164.672,17.317 164.672,43.848 173.953,43.848 173.953,26.458 "/>
<path d="M176.771,49.128c0,4.141-3.359,7.5-7.5,7.5s-7.5-3.359-7.5-7.5c0-4.142,3.359-7.5,7.5-7.5S176.771,44.987,176.771,49.128z
	 M169.271,45.614c-1.941,0-3.516,1.573-3.516,3.515c0,1.94,1.574,3.512,3.516,3.512s3.516-1.572,3.516-3.512
	C172.787,47.187,171.213,45.614,169.271,45.614z"/>
<path d="M227.247,59.773c0,4.141-3.359,7.5-7.5,7.5s-7.5-3.359-7.5-7.5c0-4.143,3.359-7.5,7.5-7.5S227.247,55.631,227.247,59.773z
	 M219.747,56.26c-1.941,0-3.516,1.572-3.516,3.514c0,1.939,1.574,3.514,3.516,3.514s3.516-1.574,3.516-3.514
	C223.263,57.832,221.688,56.26,219.747,56.26z"/>
</svg>
