<?xml version="1.0" encoding="utf-8"?>
<!-- Generator: Adobe Illustrator 16.0.0, SVG Export Plug-In . SVG Version: 6.00 Build 0)  -->
<!DOCTYPE svg PUBLIC "-//W3C//DTD SVG 1.1//EN" "http://www.w3.org/Graphics/SVG/1.1/DTD/svg11.dtd">
<svg version="1.1" id="Layer_1" xmlns="http://www.w3.org/2000/svg" xmlns:xlink="http://www.w3.org/1999/xlink" x="0px" y="0px"
	 width="532.083px" height="200px" viewBox="-239.583 -85.083 532.083 200" enable-background="new -239.583 -85.083 532.083 200"
	 xml:space="preserve">
<path d="M206.822,66.523c0,4.141-3.359,7.5-7.5,7.5c-4.143,0-7.5-3.359-7.5-7.5c0-4.143,3.357-7.5,7.5-7.5
	C203.463,59.023,206.822,62.381,206.822,66.523z M199.322,63.01c-1.941,0-3.516,1.572-3.516,3.514c0,1.939,1.574,3.514,3.516,3.514
	c1.939,0,3.512-1.574,3.512-3.514C202.834,64.582,201.262,63.01,199.322,63.01z"/>
<path d="M185.547,27.16c7.951-31.5-0.359-50.88-0.359-50.88l9-1.742c0,0,4.676,7.734,3.273,53.712
	C197.338,31.844,184.668,30.644,185.547,27.16z"/>
<path d="M190.848-22.439c12.785,1.41,46.727,14.943,41.008,5.059c-6.48-11.172-25.951-21.547-40.301-26.094
	c-10.021-3.166-25.6,4.336-35.156,19.203C151.361-16.441,181.576-23.46,190.848-22.439z"/>
<text transform="matrix(1 0 0 1 -142.25 16.75)" font-family="'DINAlternate-Bold'" font-size="70">BioDivine</text>
<polyline points="214.811,14.753 214.914,55.223 224.164,55.223 224.061,6.122 194.48,6.122 196.748,17.317 194.561,27.379 
	203.77,27.442 203.77,61.879 194.561,61.879 194.48,36.504 185.156,36.504 185.188,24.805 188.811,14.754 "/>
<polygon points="187.621,26.411 187.621,17.317 164.672,17.317 164.672,43.848 173.953,43.848 173.953,26.458 "/>
<path d="M176.771,49.128c0,4.141-3.359,7.5-7.5,7.5s-7.5-3.359-7.5-7.5c0-4.142,3.359-7.5,7.5-7.5S176.771,44.987,176.771,49.128z
	 M169.271,45.614c-1.941,0-3.516,1.573-3.516,3.515c0,1.94,1.574,3.512,3.516,3.512s3.516-1.572,3.516-3.512
	C172.787,47.187,171.213,45.614,169.271,45.614z"/>
<path d="M227.247,59.773c0,4.141-3.359,7.5-7.5,7.5s-7.5-3.359-7.5-7.5c0-4.143,3.359-7.5,7.5-7.5S227.247,55.631,227.247,59.773z
	 M219.747,56.26c-1.941,0-3.516,1.572-3.516,3.514c0,1.939,1.574,3.514,3.516,3.514s3.516-1.574,3.516-3.514
	C223.263,57.832,221.688,56.26,219.747,56.26z"/>
<text transform="matrix(1 0 0 1 30.5 53.0234)" font-family="'DINCondensed-Bold'" font-size="38">TOOLSET</text>
<path d="M-53.296-24.106c0,0,0.608,1.392-5.312,7.761c-0.681,0.732,1.515,2.159,2.087,1.34c3.471-4.969,4.797-7.973,4.797-7.973
	L-53.296-24.106z"/>
<path d="M-59.695-16.785c0.215-3.791,4.976-14.464,4.976-14.464l-1.921-0.81c0,0-1.799,7.625-5.688,14.484
	C-62.667-16.976-59.735-16.1-59.695-16.785z"/>
<path d="M-62.46-17.759c-1.334-4.512,0.332-12.449,0.332-12.449l-1.291-0.25c0,0-1.27,5.719-1.067,12.314
	C-64.47-17.628-62.314-17.265-62.46-17.759z"/>
<path d="M-63.243-28.196c-1.835,0.202-6.703,2.144-5.883,0.726c0.929-1.603,3.723-3.091,5.78-3.743
	c1.438-0.454,3.672,0.622,5.043,2.755C-57.579-27.335-61.913-28.342-63.243-28.196z"/>
<path d="M-55.546-30.951c-1.623-0.655-5.167-1.005-6.913-1.097c-2.911-0.152,6.183-2.542,8.198-1.935
	c1.773,0.535,6.154,6.885,4.508,6.01C-51.25-28.767-53.975-30.318-55.546-30.951z"/>
<path d="M-56.425-24.583c3.305,0.117,3.064,0.74,4.16,1.289c0.963,0.482,0.982,2.619,1.303,3.862
	c0.484,1.875,2.277-3.905,0.408-6.37C-52.171-27.935-58.154-24.646-56.425-24.583z"/>
</svg>
