<?xml version="1.0" encoding="utf-8"?>
<!-- Generator: Adobe Illustrator 16.0.0, SVG Export Plug-In . SVG Version: 6.00 Build 0)  -->
<!DOCTYPE svg PUBLIC "-//W3C//DTD SVG 1.1//EN" "http://www.w3.org/Graphics/SVG/1.1/DTD/svg11.dtd">
<svg version="1.1" id="Layer_1" xmlns="http://www.w3.org/2000/svg" xmlns:xlink="http://www.w3.org/1999/xlink" x="0px" y="0px"
	 width="1079.077px" height="254px" viewBox="-759.5 -113.5 1079.077 254" enable-background="new -759.5 -113.5 1079.077 254"
	 xml:space="preserve">
<polyline fill="none" stroke="#00796B" stroke-width="33" stroke-miterlimit="10" points="258.5,29.917 258.5,78.918 130.5,78.918 
	130.5,-49.083 194.5,-49.083 194.5,-0.083 "/>
<path fill="#00796B" d="M283.546,15.25c0,13.828-11.216,25.047-25.046,25.047c-13.828,0-25.045-11.219-25.045-25.047
	c0-13.83,11.217-25.045,25.045-25.045C272.33-9.795,283.546,1.421,283.546,15.25z M258.5,3.514c-6.481,0-11.739,5.254-11.739,11.736
	c0,6.477,5.258,11.729,11.739,11.729c6.482,0,11.743-5.251,11.743-11.729C270.243,8.768,264.982,3.514,258.5,3.514z"/>
<path fill="#00796B" d="M219.545,15.25c0,13.828-11.216,25.047-25.046,25.047c-13.828,0-25.045-11.219-25.045-25.047
	c0-13.83,11.217-25.045,25.045-25.045C208.329-9.795,219.545,1.421,219.545,15.25z M194.499,3.514
	c-6.481,0-11.739,5.254-11.739,11.736c0,6.477,5.258,11.729,11.739,11.729c6.482,0,11.743-5.251,11.743-11.729
	C206.242,8.768,200.981,3.514,194.499,3.514z"/>
<text transform="matrix(1 0 0 1 -697.1504 78.918)" fill="#212121" font-family="'DINAlternate-Bold'" font-size="200">BioDivine</text>
</svg>
